 <svg class="icon" viewBox="0 0 1024 1024" version="1.1" xmlns="http://www.w3.org/2000/svg" p-id="3726" height="128" width="128"><path d="M224.144291 511.255273a47.941818 47.941818 0 1 0 95.883636 0 47.941818 47.941818 0 0 0-95.883636 0z m239.336727 0a47.941818 47.941818 0 1 0 95.883637 0 47.941818 47.941818 0 0 0-95.883637 0z m239.336727 0a47.941818 47.941818 0 1 0 95.883637 0 47.941818 47.941818 0 0 0-95.883637 0z m-296.308363 511.255272a1197.149091 1197.149091 0 0 1-134.609455-7.168c-78.010182-7.447273-135.354182-17.128727-174.638545-29.509818-44.962909-14.242909-69.818182-22.062545-68.235637-50.548363a34.909091 34.909091 0 0 1 27.182546-30.72c36.119273-6.237091 66.280727-15.732364 90.949818-28.672-0.186182-9.309091-4.654545-17.780364-12.288-26.344728A527.453091 527.453091 0 0 1 39.358836 699.019636a505.111273 505.111273 0 0 1-39.191272-186.181818A491.054545 491.054545 0 0 1 38.7072 313.716364a520.657455 520.657455 0 0 1 108.078545-161.978182A514.513455 514.513455 0 0 1 308.391564 41.611636 509.765818 509.765818 0 0 1 507.233745 0h0.279273c73.914182 0 138.891636 12.939636 199.028364 38.446545 61.44 25.972364 116.177455 61.998545 162.909091 106.775273a501.76 501.76 0 0 1 153.134545 357.841455 485.469091 485.469091 0 0 1-34.443636 188.229818A502.411636 502.411636 0 0 1 889.092655 847.220364a540.392727 540.392727 0 0 1-148.293819 111.429818 518.330182 518.330182 0 0 1-184.133818 54.458182 885.76 885.76 0 0 1-52.037818 5.492363c-32.581818 2.420364-65.349818 3.723636-98.117818 3.909818zM167.638109 937.053091c30.068364 5.585455 67.025455 10.426182 110.778182 14.615273a1194.821818 1194.821818 0 0 0 221.277091 3.258181c17.408-1.396364 33.885091-3.165091 49.338182-5.21309a458.379636 458.379636 0 0 0 162.536727-47.848728A477.556364 477.556364 0 0 0 842.5472 803.653818c36.957091-39.656727 66.280727-85.829818 86.388364-136.192 20.759273-52.130909 30.906182-107.706182 29.789091-163.746909a438.644364 438.644364 0 0 0-133.492364-312.413091 469.364364 469.364364 0 0 0-143.546182-94.021818A430.731636 430.731636 0 0 0 513.191564 63.860364a452.421818 452.421818 0 0 0-179.293091 36.491636 449.256727 449.256727 0 0 0-141.498182 96.256c-40.401455 40.96-72.610909 89.274182-94.859636 142.242909a425.425455 425.425455 0 0 0-33.512728 172.776727c0.930909 55.761455 12.567273 110.778182 33.978182 162.257455 20.386909 48.686545 48.779636 93.463273 84.154182 132.654545 15.825455 17.687273 25.6 37.236364 29.137454 57.902546 4.933818 28.392727-7.540364 53.061818-34.071272 67.677091a268.008727 268.008727 0 0 1-9.588364 4.840727z" p-id="3727"></path></svg>