<svg class="icon" viewBox="0 0 1024 1024" version="1.1" xmlns="http://www.w3.org/2000/svg" p-id="4516" height="128" width="128"><path d="M 859.261 978.369 h -47.361 v -916.672 h 47.361 c 26.239 0 47.361 21.248 47.361 47.423 v 821.824 c 0 26.176 -21.121 47.423 -47.361 47.423 Z M 212.029 930.946 v -47.361 h 78.912 c 52.288 0 94.72 -42.495 94.72 -94.784 c 0 -52.353 -42.432 -94.783 -94.72 -94.784 h -78.912 v -79.168 h 78.912 c 52.288 0 94.72 -42.432 94.72 -94.784 s -42.432 -94.783 -94.72 -94.784 h -78.912 v -79.104 h 78.912 c 52.288 0 94.72 -42.432 94.72 -94.784 s -42.432 -94.783 -94.72 -94.784 h -78.912 v -47.489 c 0 -26.176 21.184 -47.425 47.361 -47.425 h 505.215 v 916.672 h -505.215 c -26.176 0 -47.361 -21.248 -47.361 -47.423 Z M 338.368 251.392 c 0 26.176 -21.248 47.425 -47.361 47.425 h -126.338 c -26.112 0 -47.296 -21.248 -47.296 -47.425 s 21.184 -47.423 47.296 -47.423 h 126.335 c 26.112 0 47.361 21.248 47.361 47.423 Z M 164.672 472.64 h 126.338 c 26.112 0 47.358 21.248 47.358 47.425 s -21.248 47.361 -47.358 47.361 h -126.338 c -26.112 0 -47.296 -21.184 -47.296 -47.361 s 21.184 -47.425 47.296 -47.425 Z M 164.672 741.313 h 126.338 c 26.112 0 47.358 21.248 47.358 47.425 s -21.248 47.361 -47.358 47.361 h -126.338 c -26.112 0 -47.296 -21.184 -47.296 -47.361 s 21.184 -47.425 47.296 -47.425 Z" fill="#1296db" p-id="4517"></path></svg>