 <svg class="icon" viewBox="0 0 1000 1000" version="1.1" xmlns="http://www.w3.org/2000/svg" p-id="5079" height="128" width="128"><path d="M431.1713 166.2553c34.9677-31.4057 79.8911-51.4451 126.5994-56.5916 40.797-4.447 82.8392 1.9597 120.2094 19.0171 29.4482 13.325 56.0313 32.9227 77.3337 57.2232 39.1261 43.7084 59.8489 102.9592 57.2765 161.5105 41.5985 4.7548 80.7586 27.1116 105.8776 60.5969 19.4256 25.3738 30.2317 56.8804 31.5259 88.7488v9.711415660182396c-1.3292 35.2571-14.5697 70.0365-37.8309 96.6725-28.4929 33.2784-71.5734 53.4538-115.4385 53.7625-52.3327 0.2209-104.6673-0.035-156.984 0.1189-5.6744 0-11.8784-1.1592-15.9339-5.4533-6.5788-6.1328-6.6288-17.5861-0.2049-23.8388 3.9875-4.5829 10.4134-5.5372 16.1897-5.6412 51.6691-0.018 103.3562 0.068 155.0252-0.051 24.0107-0.068 47.9704-7.378 67.7568-21.0267 21.0786-14.4532 37.5241-35.7008 45.7718-59.9164 10.8901-31.014 8.2477-66.408-7.1564-95.4273-19.0179-36.6551-58.026-62.2318-99.4177-63.9876-7.2614-0.2558-15.8149-0.4087-20.8757-6.5096-4.5171-4.6009-4.722-11.4342-4.1943-17.4672 4.686-42.755-5.5715-87.009-28.5778-123.3574-22.0679-35.2051-55.6406-63.1182-94.4428-78.0461-42.1272-16.291-89.9957-17.5521-132.7524-2.8631-53.6628 17.9258-98.1405 60.7838-118.4695 113.541-2.3685 7.2761-8.4866 13.8546-16.5135 14.1784-6.9356 0.8174-12.6959-3.8514-17.5348-8.1805-20.433-18.6933-50.221-26.1223-77.1459-19.9205-35.5653 7.5319-64.2121 39.4832-67.518 75.7456-1.1753 7.7368 1.2612 16.4778-3.6467 23.2602-4.0894 6.3557-12.0133 8.0096-18.6591 10.344-31.1002 10.9066-57.7362 33.912-73.2443 62.9653-11.2468 20.9258-16.7004 44.9525-15.5421 68.6914 1.2782 33.5692 15.9348 66.424 40.0645 89.8031 24.5733 24.4035 58.9974 38.1891 93.5564 38.1711 47.12 0.1039 94.222 0.051 141.324 0.018 6.1351-0.018 12.9338 1.3641 16.9392 6.4236 5.8283 6.3397 5.4195 17.2113-0.8684 23.1073-4.4652 4.8557-11.5027 5.3853-17.6897 5.4353-45.449-0.1019-90.8981 0-136.3471-0.051-15.5581-0.033-31.1851-1.519-46.2325-5.6052-42.0752-10.7697-79.2765-38.7867-101.6013-75.9855-15.0814-24.7252-23.1762-53.4048-24.3175-82.2882v-9.934264568622474c1.0903-24.3505 6.8506-48.5821 17.8936-70.3603 19.0189-38.1371 53.0672-68.2827 93.0627-82.9028 2.1986-28.6965 14.3828-56.5746 34.6969-77.0578 20.33-20.9598 48.3972-34.2348 77.5376-36.4163 27.0278-2.3174 54.6002 4.9087 77.2648 19.7676C390.903 209.6918 409.1883 185.869 431.1713 166.2553zM496.3049 483.807c-0.3598-10.7677 10.0006-20.67 20.8227-17.9938 9.1841 1.465 14.3998 10.9396 14.076 19.6637-0.035 101.3753 0.0849 202.7675-0.068 304.1418 18.5762-19.0011 37.5591-37.6265 56.2881-56.4737 6.0991-6.2358 16.6664-8.2644 23.7729-2.5393 8.9633 6.1868 8.6895 20.0234 0.9184 27.1296-32.7022 32.8877-65.5742 65.6415-98.3783 98.4433-32.5493-32.48-64.9946-65.0609-97.5778-97.4909-4.0054-4.2431-7.5332-9.8643-6.6128-15.9322 0.4257-8.6232 8.6405-16.0012 17.246-15.5055 7.2424-0.2248 12.7809 5.3324 17.5178 10.1041 17.246 17.5351 34.9527 34.6265 52.0279 52.3315C496.2019 687.7317 496.2529 585.7599 496.3049 483.807z" p-id="5080"></path></svg>