 <svg class="icon" viewBox="0 0 1024 1024" version="1.1" xmlns="http://www.w3.org/2000/svg" p-id="11872" height="128" width="128"><path d="M220.582957 4.34087c-1.001739 1.001739-1.80313 2.31513-1.803131 2.960695 0 0.623304-2.782609 1.135304-6.188522 1.135305-5.787826 0-6.188522 0.222609-6.188521 3.116521 0 2.448696-0.623304 3.072-3.094261 3.072-2.448696 0-3.094261 0.623304-3.094261 3.005218 0 2.181565-0.75687 3.116522-2.782609 3.405913-2.760348 0.400696-2.782609 0.556522-3.116522 24.84313l-0.333913 24.420174-73.906087 0.155826c-40.648348 0.066783-74.24 0.111304-74.640695 0.044522-0.422957-0.044522-1.491478 1.29113-2.381913 2.960696-1.224348 2.29287-2.626783 3.027478-5.743305 3.027478-3.561739 0-4.118261 0.422957-4.11826 3.116522 0 2.56-0.601043 3.072-3.494957 3.072a5.231304 5.231304 0 0 0-5.164522 3.116521c-0.912696 1.669565-2.114783 3.072-2.671304 3.072-0.578783 0-1.046261 1.335652-1.046261 3.005218 0 2.181565-0.75687 3.116522-2.782609 3.405913a3.517217 3.517217 0 0 0-3.183304 3.183304c-0.222609 1.536-0.868174 2.782609-1.446957 2.782609-2.738087 0-4.541217 3.984696-4.808347 10.618435-0.26713 6.678261-3.116522 14.113391-5.342609 14.113391-0.534261 0-0.957217 188.059826-0.934957 417.881043 0.022261 433.196522-0.089043 422.733913 4.452174 422.288696 0.601043-0.066783 1.335652 3.650783 1.669566 8.236522 0.534261 7.212522 1.024 8.570435 3.405913 9.616695a4.452174 4.452174 0 0 1 2.782608 4.006957c0 1.558261 0.601043 2.80487 1.335652 2.804869 0.712348 0 0.912696 0.601043 0.467479 1.335653-0.445217 0.712348 0.311652 1.602783 1.669565 1.958956 1.647304 0.445217 2.760348 2.092522 3.272348 4.875131 0.690087 3.673043 1.26887 4.207304 4.518956 4.207304 2.337391 0 3.428174 0.489739 2.916174 1.335652-0.445217 0.712348 0.356174 1.602783 1.78087 2.003478 1.424696 0.356174 2.604522 1.157565 2.604522 1.758609 0 0.601043 1.26887 1.090783 2.804869 1.090783a4.452174 4.452174 0 0 1 4.006957 2.782608c1.090783 2.448696 2.359652 2.849391 10.841043 3.405913 5.275826 0.333913 9.705739 1.179826 9.839304 1.847653 0.845913 4.385391-4.897391 4.34087 452.964174 4.340869h446.775653l2.604521-3.049739c2.270609-2.626783 3.82887-3.072 11.798261-3.405913 8.45913-0.333913 9.216-0.578783 9.572174-3.138783 0.289391-2.003478 1.224348-2.782609 3.33913-2.782608 1.625043 0 4.296348-1.335652 5.921392-2.960696a13.534609 13.534609 0 0 1 5.209043-3.405913c1.246609-0.24487 3.272348-2.270609 4.541218-4.518957 1.246609-2.248348 3.383652-5.275826 4.741565-6.722782 1.335652-1.469217 2.448696-3.606261 2.448696-4.763826 0-1.135304 1.046261-2.359652 2.292869-2.671305 2.537739-0.667826 3.895652-5.565217 3.895652-13.890782 0-3.450435 0.845913-6.210783 2.470957-8.080696 1.380174-1.558261 2.493217-3.472696 2.493217-4.229565 1.024-383.866435-0.26713-830.441739-2.426435-834.470957a30.72 30.72 0 0 1-2.871652-10.039652c-0.601043-7.346087-1.001739-8.45913-4.296348-11.865043-1.536-1.580522-2.782609-3.739826-2.782608-4.786087 0-1.090783-1.068522-1.914435-2.470957-1.914435s-2.470957-0.823652-2.470956-1.914435c0-2.537739-5.075478-9.282783-6.38887-8.481391-0.578783 0.356174-1.046261 0.044522-1.046261-0.667826s-1.068522-1.313391-2.381913-1.313391c-1.558261 0-2.537739-1.001739-2.782609-2.782609-0.289391-2.048-1.357913-2.893913-4.073739-3.205565a12.198957 12.198957 0 0 1-6.433391-3.405913l-2.760348-2.982957h-147.366956v-17.630609c0-25.088-0.77913-30.230261-4.585739-31.187478-1.869913-0.467478-2.80487-1.402435-2.426435-2.426435 0.823652-2.137043-1.491478-4.429913-4.496696-4.429913-1.491478 0-2.114783-0.623304-1.691826-1.691826 1.046261-2.782609-1.78087-4.496696-7.457391-4.496695-4.385391 0-5.320348-0.400696-5.320348-2.315131 0-2.849391-3.205565-3.82887-12.577391-3.85113-6.967652 0-11.865043 2.404174-10.24 5.030956 0.378435 0.623304-0.868174 1.179826-2.782609 1.246609-7.501913 0.200348-10.195478 1.736348-10.24 5.854609-0.022261 0.890435-0.534261 1.29113-1.179826 0.890434-2.203826-1.335652-5.030957 3.227826-5.030957 8.16974 0 2.693565-0.512 4.608-1.157565 4.229565-3.82887-2.381913-5.030957 3.161043-5.030956 22.928695v19.678609h-210.342957l-0.178087-21.949217a1516.722087 1516.722087 0 0 0-0.311652-23.819131c-0.066783-1.024-1.380174-2.404174-2.893913-3.072-1.558261-0.667826-2.80487-1.958957-2.80487-2.893913 0-5.186783-6.366609-10.128696-13.133913-10.128695-3.650783 0-6.589217-0.400696-6.500174-0.912696 0.690087-4.496696-0.155826-4.986435-8.503652-4.808348-7.657739 0.155826-8.392348 0.400696-8.748522 2.938435-0.356174 2.493217-1.113043 2.782609-6.900869 2.782609-5.676522 0-6.722783 0.400696-8.169739 3.116521-0.890435 1.691826-2.29287 3.072-3.094261 3.072-0.77913 0-2.181565 1.402435-3.094261 3.116522-0.890435 1.691826-2.114783 3.072-2.671304 3.072-0.578783 0-1.046261 11.130435-1.046261 24.754087v24.731826h-211.767652l0.244869-16.384c0.378435-23.841391 0.24487-25.666783-1.847652-25.666783-1.78087 0-4.563478-3.873391-4.229565-5.832347 0.645565-3.962435-0.445217-6.366609-3.227826-7.056696-1.981217-0.489739-3.116522-1.647304-3.116522-3.161043 0-2.31513-1.26887-2.782609-10.885565-4.140522-0.890435-0.133565-1.558261-0.690087-1.446957-1.26887 0.578783-4.096-17.986783-6.188522-21.726608-2.448695M194.048 159.076174c0.022261 24.30887 0.445217 27.536696 3.762087 27.536696 1.380174 0 2.381913 1.068522 2.626783 2.782608 0.24487 1.758609 1.402435 2.916174 3.116521 3.161044 1.625043 0.178087 2.893913 1.469217 3.072 3.116521 0.333913 2.29287 1.380174 2.782609 7.212522 3.31687 3.739826 0.333913 6.611478 0.890435 6.41113 1.224348-3.361391 5.342609 15.048348 7.190261 19.010783 1.914435 1.78087-2.381913 3.494957-3.138783 6.945391-3.138783 3.227826 0 5.231304-0.823652 6.856348-2.80487a21.014261 21.014261 0 0 1 4.719305-4.140521c1.335652-0.734609 2.916174-3.494957 3.539478-6.121739a14.558609 14.558609 0 0 1 3.650782-6.834087c2.381913-1.936696 2.515478-3.205565 2.248348-22.016l-0.26713-19.945739h211.589565l0.333913 24.420173c0.333913 24.286609 0.356174 24.442435 3.116522 24.843131 2.003478 0.289391 2.782609 1.224348 2.782609 3.405913 0 2.359652 0.667826 3.005217 3.005217 3.005217 2.181565 0 3.116522 0.75687 3.405913 2.782609 0.333913 2.337391 1.26887 2.82713 6.010435 3.138783 4.385391 0.289391 5.87687 0.957217 6.811826 3.116521 1.825391 4.140522 15.827478 4.096 16.428522-0.066782 0.333913-2.404174 1.135304-2.782609 5.832347-2.782609 4.786087 0 11.063652-4.518957 7.123479-5.12-0.534261-0.066783 0.690087-0.489739 2.738087-0.934956 2.048-0.445217 3.784348-1.469217 3.873391-2.315131l0.289391-2.782609c0.089043-0.667826 0.979478-1.224348 1.981218-1.224347 1.491478 0 5.275826-4.85287 4.585739-5.87687-0.133565-0.178087-0.222609-10.061913-0.222609-21.971478V137.126957h210.342957v18.854956c0.022261 21.325913 0.512 24.442435 3.85113 24.442435 1.714087 0 2.337391 0.890435 2.337391 3.405913 0.044522 6.41113 1.335652 8.97113 4.541218 8.97113 1.669565 0 2.760348 0.422957 2.448695 0.934957-0.645565 1.024 2.226087 5.453913 3.405913 5.342609 4.36313-0.512 10.618435 0.155826 10.061913 1.04626-2.893913 4.697043 16.428522 6.678261 20.079305 2.02574 1.736348-2.226087 3.806609-3.116522 7.813565-3.405914 4.585739-0.311652 5.520696-0.845913 5.854609-3.161043 0.24487-1.78087 1.246609-2.782609 2.738087-2.782609 2.226087 0 6.099478-4.87513 4.006956-5.030956-0.512-0.044522 0.311652-0.578783 1.847652-1.202087 4.452174-1.78087 5.231304-6.166261 5.231305-28.493913V137.126957h117.537391v118.761739H76.488348V137.126957h117.537391l0.022261 21.949217m754.688 479.721739V948.758261H76.488348V328.882087H948.758261v309.938087m-277.548522-147.033044c-0.445217 0.445217-0.823652 1.847652-0.823652 3.116522 0 1.558261-0.912696 2.248348-3.094261 2.248348-2.448696 0-3.094261 0.623304-3.094261 3.094261 0 2.470957-0.601043 3.094261-3.094261 3.094261-2.448696 0-3.094261 0.623304-3.094261 3.094261 0 2.470957-0.601043 3.094261-3.09426 3.09426-2.448696 0-3.072 0.623304-3.072 3.094261 0 2.470957-0.623304 3.094261-3.116522 3.094261-2.448696 0-3.072 0.623304-3.072 3.094261 0 2.448696-0.623304 3.094261-3.116522 3.094261-2.448696 0-3.072 0.601043-3.072 3.094261 0 2.448696-0.623304 3.094261-3.116522 3.094261-2.448696 0-3.072 0.601043-3.072 3.094261 0 2.448696-0.623304 3.072-3.116521 3.072-2.448696 0-3.072 0.623304-3.072 3.116521 0 2.448696-0.623304 3.072-3.094261 3.072-2.470957 0-3.094261 0.623304-3.094261 3.116522 0 2.448696-0.623304 3.072-3.094261 3.072-2.470957 0-3.094261 0.623304-3.094261 3.116522 0 2.448696-0.623304 3.072-3.094261 3.072-2.470957 0-3.094261 0.623304-3.094261 3.116522 0 2.448696-0.623304 3.072-3.09426 3.072-2.448696 0-3.094261 0.623304-3.094261 3.09426 0 2.470957-0.601043 3.094261-3.094261 3.094261-2.448696 0-3.094261 0.623304-3.094261 3.094261 0 2.470957-0.601043 3.094261-3.072 3.094261-2.493217 0-3.116522 0.623304-3.116522 3.094261 0 2.448696-0.601043 3.094261-3.072 3.094261-2.493217 0-3.116522 0.623304-3.116522 3.094261 0 2.448696-0.601043 3.094261-3.072 3.09426-2.470957 0-3.116522 0.601043-3.116521 3.094261 0 2.448696-0.601043 3.094261-3.072 3.094261-2.470957 0-3.116522 0.601043-3.116522 3.072 0 2.493217-0.601043 3.116522-3.072 3.116522-2.470957 0-3.094261 0.601043-3.094261 3.072 0 2.493217-0.623304 3.116522-3.094261 3.116522-2.470957 0-3.094261 0.601043-3.094261 3.072 0 2.470957-0.623304 3.116522-3.09426 3.116521-2.470957 0-3.094261 0.601043-3.094261 3.072 0 2.470957-0.623304 3.116522-3.094261 3.116522-2.448696 0-3.094261 0.601043-3.094261 2.982957 0 2.181565-0.75687 3.116522-2.782609 3.405913a3.517217 3.517217 0 0 0-3.183304 3.183304c-0.26713 2.003478-1.224348 2.782609-3.383652 2.782609-2.359652 0-3.005217 0.645565-3.005218 3.005217 0 2.181565-0.77913 3.116522-2.804869 3.405913a3.517217 3.517217 0 0 0-3.161044 3.183305c-0.289391 2.003478-1.224348 2.782609-3.405913 2.782608-2.381913 0-3.005217 0.645565-3.005217 3.094261 0 2.448696-0.623304 3.094261-3.116522 3.094261-2.448696 0-3.072 0.601043-3.072 3.094261 0 2.448696-0.623304 3.072-3.116522 3.072-2.448696 0-3.072 0.623304-3.072 3.116522 0 2.448696-0.623304 3.072-3.094261 3.072-2.470957 0-3.094261 0.623304-3.09426 3.116521 0 2.448696-0.623304 3.072-3.094261 3.072-2.470957 0-3.094261 0.623304-3.094261 3.116522 0 2.448696-0.623304 3.072-3.094261 3.072-2.470957 0-3.094261 0.623304-3.094261 3.116522 0 2.448696-0.623304 3.072-3.094261 3.072-2.448696 0-3.094261 0.623304-3.094261 3.094261 0 2.470957-0.601043 3.094261-3.09426 3.094261-2.448696 0-3.094261 0.623304-3.094261 3.09426 0 2.470957-0.601043 3.094261-3.072 3.094261-2.493217 0-3.116522 0.623304-3.116522 3.094261 0 4.006957-6.010435 4.563478-7.034435 0.667826a5.12 5.12 0 0 0-3.049739-3.205565c-1.335652-0.445217-2.938435-2.114783-3.561739-3.762087-0.623304-1.647304-2.003478-2.982957-3.049739-2.982956-1.046261 0-2.448696-1.402435-3.094261-3.094261-0.645565-1.691826-2.025739-3.094261-3.094261-3.094261-1.046261 0-2.448696-1.380174-3.094261-3.094261-0.712348-1.892174-2.137043-3.094261-3.673043-3.094261-1.380174 0-2.448696-0.422957-2.359653-0.934956 0.378435-2.337391-0.222609-5.231304-1.068521-5.12-2.359652 0.400696-5.253565-0.222609-5.12-1.046261 0.378435-2.359652-0.222609-5.253565-1.068522-5.12-2.359652 0.378435-5.253565-0.222609-5.12-1.068522 0.378435-2.359652-0.222609-5.253565-1.068522-5.12-3.33913 0.534261-5.320348-0.534261-5.988174-3.227826-0.489739-1.936696-1.647304-3.116522-3.094261-3.116522-1.446957 0-2.604522-1.157565-3.09426-3.072-0.489739-1.936696-1.647304-3.116522-3.116522-3.116522-1.29113 0-2.270609-0.400696-2.181565-0.912695 0.578783-3.650783-0.422957-5.253565-3.250087-5.253565-2.226087 0-3.094261-0.667826-3.094261-2.337392 0-1.446957-1.135304-2.626783-2.960696-3.094261a5.298087 5.298087 0 0 1-3.717565-3.85113c-0.512-2.003478-1.647304-3.094261-3.250087-3.094261-1.558261 0-2.448696-0.823652-2.448696-2.337391 0-1.469217-1.157565-2.626783-3.094261-3.116522-2.092522-0.534261-3.094261-1.625043-3.09426-3.428174 0-1.469217-0.311652-2.337391-0.712348-1.936696-0.979478 0.957217-5.453913-2.960696-5.453913-4.786087 0-0.77913-1.157565-1.736348-2.582261-2.092521a4.897391 4.897391 0 0 1-3.205565-3.116522c-0.356174-1.380174-2.003478-2.82713-3.628522-3.227826-1.869913-0.467478-2.960696-1.647304-2.960696-3.205565 0-1.335652-0.801391-2.448696-1.780869-2.448696-0.957217 0-2.626783-0.890435-3.695305-1.936696-1.068522-1.068522-1.958957-1.513739-1.958956-0.979478 0 0.556522-0.868174-0.222609-1.914435-1.758609-1.380174-1.958957-3.183304-2.738087-6.255304-2.738087-2.448696 0-4.006957-0.534261-3.606261-1.179826 2.982957-4.85287-15.404522-6.678261-20.301913-2.003478a13.356522 13.356522 0 0 1-8.125218 3.405913c-3.606261 0.289391-5.253565 1.113043-6.077217 2.960696a8.414609 8.414609 0 0 1-3.717565 3.717565 5.654261 5.654261 0 0 0-2.982957 3.940174c-0.222609 1.536-0.868174 2.515478-1.446956 2.137043-3.517217-2.159304-4.964174 3.450435-4.964174 19.277913 0 16.584348 0.133565 16.940522 5.275826 16.139131 0.512-0.089043 0.845913 0.26713 0.77913 0.77913-0.77913 4.85287 0.445217 8.726261 3.227826 10.195479 1.714087 0.912696 3.116522 2.31513 3.116522 3.116521 0 0.77913 1.380174 2.159304 3.072 3.072 1.714087 0.912696 3.116522 2.31513 3.116522 3.116522 0 0.77913 1.380174 2.159304 3.072 3.072 1.714087 0.912696 3.116522 2.31513 3.116522 3.116522 0 0.77913 1.380174 2.159304 3.072 3.072 1.691826 0.912696 3.094261 2.29287 3.094261 3.116522 0 0.77913 1.380174 2.159304 3.09426 3.072 1.691826 0.890435 3.094261 2.29287 3.094261 3.09426 0 0.801391 1.380174 2.181565 3.094261 3.094261 1.691826 0.890435 3.094261 2.29287 3.094261 3.094261 0 0.77913 1.380174 2.181565 3.094261 3.094261 1.691826 0.890435 3.094261 2.29287 3.094261 3.094261 0 0.77913 1.380174 2.181565 3.094261 3.094261 1.691826 0.890435 3.094261 2.337391 3.09426 3.183304 0 0.845913 1.669565 2.29287 3.695305 3.183304 2.048 0.912696 3.717565 2.359652 3.717565 3.205566 0 0.845913 0.601043 1.558261 1.313391 1.558261s0.890435 0.645565 0.445218 1.424695c-0.512 0.801391-0.356174 1.113043 0.333913 0.667826 1.402435-0.868174 6.767304 4.719304 5.654261 5.832348-0.400696 0.400696 0.467478 0.734609 1.936695 0.734609 1.558261 0 2.671304 0.77913 2.671305 1.847652 0 1.024 0.601043 1.869913 1.335652 1.869913 0.712348 0 0.957217 0.556522 0.512 1.26887-0.422957 0.667826-0.311652 1.179826 0.222609 1.090782 2.626783-0.445217 4.140522 0.26713 4.140521 1.958957 0 1.024 0.578783 1.869913 1.313392 1.869913 0.712348 0 0.957217 0.556522 0.512 1.268869-0.445217 0.667826-0.311652 1.179826 0.222608 1.090783 2.626783-0.445217 4.140522 0.26713 4.140522 1.958956 0 1.024 0.578783 1.847652 1.313391 1.847653 0.712348 0 0.934957 0.578783 0.512 1.268869-0.445217 0.712348-0.311652 1.202087 0.222609 1.113044 2.626783-0.445217 4.118261 0.26713 4.118261 1.958956 0 1.024 0.601043 1.847652 1.335652 1.847652 0.712348 0 0.934957 0.578783 0.512 1.26887-0.445217 0.712348-0.333913 1.202087 0.222609 1.113043 2.626783-0.467478 4.118261 0.26713 4.118261 1.958957 0 1.024 0.601043 1.847652 1.335652 1.847652 0.712348 0 0.934957 0.578783 0.512 1.26887-0.445217 0.712348-0.333913 1.202087 0.222608 1.113043 2.604522-0.467478 4.118261 0.26713 4.118261 1.958957 0 1.024 0.601043 1.847652 1.335653 1.847652 0.712348 0 0.934957 0.578783 0.512 1.268869-0.445217 0.690087-0.333913 1.179826 0.222608 1.113044 2.604522-0.467478 4.118261 0.24487 4.118261 1.958956 0 1.024 0.601043 1.847652 1.335652 1.847653 0.690087 0 0.934957 0.578783 0.512 1.268869-0.445217 0.690087-0.333913 1.179826 0.222609 1.113044 2.604522-0.467478 4.118261 0.24487 4.118261 1.958956 0 1.001739 0.601043 1.847652 1.313391 1.847652s0.957217 0.578783 0.534261 1.26887c-0.445217 0.690087-0.333913 1.179826 0.222609 1.090783 2.604522-0.445217 4.118261 0.26713 4.118261 1.958956 0 1.024 0.601043 1.869913 1.313391 1.869913s0.957217 0.556522 0.534261 1.26887c-0.445217 0.690087-0.333913 1.179826 0.222608 1.090782 2.604522-0.445217 4.118261 0.26713 4.118261 1.958957 0 1.024 0.578783 1.869913 1.313392 1.869913 0.712348 0 0.890435 0.645565 0.422956 1.424695-0.512 0.823652-0.333913 1.113043 0.400696 0.623305 1.625043-1.001739 4.518957 2.359652 3.472695 4.051478-0.422957 0.667826 0.667826 1.602783 2.381913 2.048 1.825391 0.445217 3.450435 1.914435 3.851131 3.494957 0.534261 2.181565 1.691826 2.782609 5.743304 3.027478 4.585739 0.26713 11.620174 3.962435 10.217739 5.342609-0.311652 0.333913 3.739826 0.556522 9.015653 0.489739 8.94887-0.089043 9.594435-0.26713 9.972869-2.893913 0.356174-2.448696 1.113043-2.760348 6.500174-2.760348 3.33913 0 6.166261-0.556522 6.233044-1.246609l0.333913-2.715826c0.066783-0.823652 1.536-1.825391 3.227826-2.226087 1.714087-0.400696 3.183304-1.402435 3.250087-2.226087l0.311652-2.649043c0.089043-0.623304 1.402435-1.335652 2.938435-1.558261a3.517217 3.517217 0 0 0 3.183304-3.072 3.494957 3.494957 0 0 1 3.094261-3.116522 3.494957 3.494957 0 0 0 3.094261-3.072 3.494957 3.494957 0 0 1 3.072-3.116522 3.494957 3.494957 0 0 0 3.116521-3.072 3.494957 3.494957 0 0 1 3.072-3.116521 3.494957 3.494957 0 0 0 3.116522-3.072 3.494957 3.494957 0 0 1 3.072-3.116522 3.494957 3.494957 0 0 0 3.116522-3.072 3.494957 3.494957 0 0 1 3.072-3.094261 3.517217 3.517217 0 0 0 3.116522-3.161044c0.222609-1.78087 1.246609-2.782609 2.738087-2.782608s2.671304-1.157565 3.161043-3.116522c0.467478-1.914435 1.647304-3.072 3.094261-3.072 1.424696 0 2.604522-1.179826 3.094261-3.116522 0.467478-1.914435 1.647304-3.072 3.072-3.072 1.446957 0 2.626783-1.179826 3.116522-3.116521 0.467478-1.892174 1.647304-3.072 3.072-3.072 1.446957 0 2.626783-1.179826 3.116521-3.116522 0.534261-2.203826 1.602783-3.072 3.717565-3.072 1.625043 0 2.893913-0.422957 2.80487-0.934957-0.512-3.31687 0.445217-5.253565 2.604522-5.253565 1.580522 0 2.738087-1.113043 3.227826-3.094261 0.489739-1.914435 1.647304-3.094261 3.094261-3.094261 1.424696 0 2.604522-1.157565 3.072-3.027478 0.445217-1.825391 1.80313-3.161043 3.428174-3.383652a3.494957 3.494957 0 0 0 3.049739-3.116522 3.494957 3.494957 0 0 1 3.116522-3.072 3.494957 3.494957 0 0 0 3.072-3.094261 3.494957 3.494957 0 0 1 3.116521-3.094261 3.494957 3.494957 0 0 0 3.072-3.09426 3.494957 3.494957 0 0 1 3.094261-3.094261 3.494957 3.494957 0 0 0 3.094261-3.094261 3.494957 3.494957 0 0 1 3.094261-3.094261 3.494957 3.494957 0 0 0 3.094261-3.094261 3.494957 3.494957 0 0 1 3.094261-3.094261 3.517217 3.517217 0 0 0 3.116521-3.161043c0.26713-2.003478 1.202087-2.782609 3.383653-2.782609 2.226087 0 3.005217-0.667826 3.005217-2.537739 0-1.714087 1.224348-2.960696 3.739826-3.851131 2.404174-0.823652 3.606261-2.003478 3.405913-3.33913-0.222609-1.29113 0.667826-2.159304 2.448696-2.426435 1.78087-0.24487 2.782609-1.246609 2.782608-2.804869 0-1.380174 1.202087-2.893913 2.827131-3.494957a13.022609 13.022609 0 0 0 4.652522-3.316869c1.469217-1.78087 1.469217-2.003478 0.066782-1.157566-1.179826 0.712348-1.469217 0.578783-0.868174-0.378434 0.489739-0.801391 2.070261-1.446957 3.494957-1.446957s2.248348-0.356174 1.825391-0.77913c-1.157565-1.157565 1.446957-5.409391 3.31687-5.409392 0.890435 0 2.671304-1.202087 3.984695-2.671304 1.29113-1.491478 1.558261-2.226087 0.601044-1.669565-1.157565 0.667826-1.446957 0.556522-0.845913-0.400696 0.489739-0.801391 1.958957-1.424696 3.294608-1.424696 1.313391 0 2.31513-0.445217 2.226087-0.934956-0.445217-2.893913 0.556522-4.296348 3.895653-5.453913 2.359652-0.823652 3.628522-2.048 3.405913-3.294609a2.181565 2.181565 0 0 1 1.736347-2.426435c3.027478-0.623304 11.219478-8.681739 10.306783-10.173217-0.445217-0.667826 0.222609-1.625043 1.469217-2.092522 4.274087-1.580522 11.597913-8.258783 10.952348-9.972869-0.400696-1.068522 0.734609-2.159304 3.116522-3.005218 2.470957-0.845913 3.561739-1.914435 3.116522-3.049739-0.400696-1.068522 0.445217-2.181565 2.092521-2.82713 4.073739-1.580522 21.926957-19.789913 21.926957-22.349913 0-1.202087 1.046261-2.448696 2.31513-2.782609 5.298087-1.402435 5.431652-35.57287 0.155827-35.57287-2.448696 0-3.695304-2.381913-3.695305-7.123478 0-1.758609-0.356174-2.849391-0.77913-2.426435-0.422957 0.422957-1.558261-0.044522-2.56-1.024a6.90087 6.90087 0 0 0-4.207305-1.780869c-1.380174 0-3.027478-1.335652-3.828869-3.116522-1.380174-3.049739-33.257739-5.053217-36.062609-2.270609" p-id="11873"></path></svg>