 <svg class="icon" viewBox="0 0 1024 1024" version="1.1" xmlns="http://www.w3.org/2000/svg" p-id="12605" height="128" width="128"><path d="M897.856 878.976a61.632 61.632 0 0 1-61.696 61.696H64.448L172.48 431.36c0-34.112 27.52-61.696 61.632-61.696h710.208c34.048 0 61.568 27.584 61.568 61.696l-108.032 447.616zM187.904 323.328h694.592v-60.672a61.696 61.696 0 0 0-61.696-61.76H450.304v-55.872a61.76 61.76 0 0 0-61.696-61.696H79.872a61.76 61.76 0 0 0-61.76 61.696v734.016l108.032-493.952c0-34.112 27.648-61.76 61.76-61.76z" fill="" p-id="12606"></path></svg>