<svg class="icon" viewBox="0 0 1024 1024" version="1.1" xmlns="http://www.w3.org/2000/svg" p-id="13363" height="128" width="128"><path d="M1018.492 765.503c0 22.234-6.244 42.807-16.278 60.962l-320.15-358.192 316.685-277.054c12.308 19.563 19.743 42.518 19.743 67.314L1018.492 765.503 1018.492 765.503zM511.486 533.277l440.666-385.551c-18.083-9.89-38.44-15.953-60.421-15.953l-760.491 0c-22.017 0-42.374 6.064-60.384 15.953L511.486 533.277 511.486 533.277zM634.348 509.961l-102 89.295c-5.955 5.197-13.391 7.796-20.862 7.796-7.471 0-14.907-2.599-20.862-7.796l-102.036-89.295L64.395 872.737c19.418 12.2 42.193 19.491 66.845 19.491l760.491 0c24.616 0 47.427-7.291 66.845-19.491L634.348 509.961 634.348 509.961zM24.223 191.182c-12.308 19.527-19.707 42.518-19.707 67.314l0 506.97c0 22.234 6.208 42.807 16.278 60.962l320.114-358.265L24.223 191.182 24.223 191.182z" p-id="13364"></path></svg>