 <svg class="icon" viewBox="0 0 1024 1024" version="1.1" xmlns="http://www.w3.org/2000/svg" p-id="13464" height="128" width="128"><path d="M510.4 524m-354.4 0a354.4 354.4 0 1 0 708.8 0 354.4 354.4 0 1 0-708.8 0Z" fill="#FFFFFF" p-id="13465"></path><path d="M512 1013.6c-277.6 0-501.6-224-501.6-501.6S234.4 10.4 512 10.4s501.6 224.8 501.6 501.6-224 501.6-501.6 501.6z m216.8-432v1.6c0-13.6-4-26.4-11.2-38.4-7.2-11.2-16-20-26.4-26.4-10.4-6.4-21.6-12-33.6-15.2-1.6-0.8-4-1.6-5.6-1.6-1.6-0.8-2.4-1.6-4-2.4-1.6-1.6-2.4-2.4-1.6-4s0.8-4 1.6-6.4c9.6-24.8 9.6-44.8 0-58.4-9.6-13.6-26.4-20-49.6-20-23.2 0-49.6 6.4-80 19.2l-1.6 0.8c-1.6 1.6-2.4 2.4-4.8 0.8-1.6-0.8-3.2-1.6-4.8-1.6-1.6 0-2.4-0.8-3.2-2.4-0.8-1.6-0.8-3.2 0-6.4 9.6-31.2 7.2-54.4-6.4-68-16-16-43.2-16.8-80-2.4-37.6 14.4-74.4 40-111.2 76.8-28 28-49.6 56-64 84-15.2 28-22.4 55.2-22.4 80 0 23.2 7.2 45.6 20.8 64.8 14.4 20 32.8 36 56 49.6 23.2 12.8 48.8 23.2 78.4 30.4 28.8 7.2 59.2 11.2 89.6 11.2s60-3.2 88-10.4 52.8-16 73.6-27.2c20-10.4 38.4-23.2 55.2-38.4 16-14.4 27.2-28.8 35.2-44.8s12-29.6 12-44.8z m-100-0.8c3.2 32-11.2 60.8-43.2 86.4-32 25.6-72 41.6-120 46.4-32 3.2-61.6 0.8-89.6-7.2-28-8-50.4-19.2-68-35.2-17.6-16-27.2-34.4-28.8-55.2-3.2-32 11.2-60.8 43.2-86.4 32-25.6 72-41.6 120-46.4 32-3.2 61.6-0.8 89.6 7.2 28 8 50.4 19.2 68 35.2 16.8 15.2 27.2 33.6 28.8 55.2z m-101.6 52c9.6-21.6 9.6-42.4-0.8-62.4s-27.2-32.8-52-39.2c-23.2-5.6-45.6-4-68.8 6.4s-39.2 24.8-49.6 45.6c-10.4 20.8-11.2 40.8-2.4 61.6 8.8 20 24.8 33.6 48 41.6 24 8 48 6.4 72.8-4 25.6-11.2 43.2-27.2 52.8-49.6z m-87.2 4.8c-4.8 7.2-12 12.8-20 15.2-8.8 3.2-16.8 2.4-24-0.8-7.2-3.2-12-8.8-13.6-16.8s-0.8-15.2 4-22.4c4.8-7.2 11.2-12 19.2-15.2 8.8-3.2 16-2.4 24 0 7.2 3.2 12.8 8.8 14.4 16 1.6 8.8 0.8 16-4 24z m30.4-40v3.2c-1.6 4-4 6.4-7.2 6.4s-6.4-0.8-9.6-1.6c-6.4-3.2-8-8-4-14.4 1.6-1.6 4-4 7.2-6.4 3.2-2.4 6.4-2.4 9.6-1.6 3.2 0.8 4.8 3.2 5.6 6.4 0.8 2.4 0 5.6-1.6 8z m234.4-220C696 368 684.8 360.8 672 356.8c-12.8-4-25.6-4.8-38.4-1.6-4.8 0.8-9.6 4-12 8-2.4 4-4 9.6-2.4 14.4 0.8 5.6 3.2 9.6 8 12s9.6 4 14.4 2.4c13.6-3.2 25.6 0.8 35.2 11.2 9.6 10.4 12 22.4 8 36-1.6 4.8-0.8 10.4 1.6 14.4 2.4 4.8 6.4 8 11.2 9.6 4.8 1.6 10.4 0.8 14.4-1.6 4.8-2.4 8-6.4 9.6-11.2 4-12 4.8-24.8 2.4-38.4-4-12-10.4-24-19.2-34.4z m59.2-52.8c-19.2-20.8-41.6-36-68-44-25.6-8-52.8-9.6-79.2-4-5.6 0.8-11.2 4.8-14.4 9.6-3.2 4.8-4.8 11.2-3.2 16.8 1.6 6.4 4.8 11.2 9.6 14.4 5.6 3.2 11.2 4.8 16.8 3.2 18.4-4 38.4-3.2 56 2.4 18.4 5.6 34.4 16 48 31.2 13.6 14.4 22.4 32 26.4 52 4 19.2 3.2 38.4-3.2 56-1.6 5.6-1.6 11.2 1.6 16.8 3.2 5.6 7.2 8.8 12.8 11.2 5.6 1.6 11.2 1.6 16.8-1.6 5.6-3.2 8.8-7.2 11.2-12.8 8.8-24.8 9.6-51.2 4.8-79.2-4.8-26.4-17.6-52-36-72z" fill="#D8554F" p-id="13466"></path></svg>