 <svg class="icon" viewBox="0 0 1034 1024" version="1.1" xmlns="http://www.w3.org/2000/svg" p-id="11450" height="128" width="128"><path d="M4.43392 512c0 282.624 229.376 512 510.976 512s512-229.376 512-512-229.376-510.976-512-510.976S4.43392 229.376 4.43392 512z" fill="#21C10E" p-id="11451"></path><path d="M639.31392 433.152V232.448s-98.304-52.224-212.992-12.288l212.992 212.992z m18.432 117.76V240.64s115.712 52.224 148.48 180.224l-148.48 130.048z m-62.464 91.136l214.016-201.728s37.888 61.44-18.432 201.728h-195.584z m-109.568 24.576h289.792s-34.816 94.208-159.744 134.144l-130.048-134.144z m-94.208-63.488v188.416s74.752 48.128 203.776 15.36l-203.776-203.776z m-166.912 10.24l146.432-132.096v299.008s-89.088-30.72-146.432-166.912z m-4.096-21.504s-33.792-108.544 13.312-201.728h201.728l-215.04 201.728z m25.6-223.232s41.984-96.256 157.696-141.312l138.24 141.312h-295.936z" fill="#FFFFFF" p-id="11452"></path></svg>