 <svg class="icon" viewBox="0 0 1024 1024" version="1.1" xmlns="http://www.w3.org/2000/svg" p-id="12165" height="128" width="128"><path d="M512 0C229.248 0 0 229.248 0 512s229.248 512 512 512 512-229.248 512-512S794.752 0 512 0z m226.944 637.056s-16.256 44.16-45.952 83.84c0 0 53.12 18.048 48.64 65.024 0 0 1.792 52.352-113.536 48.64 0 0-81.152-6.272-105.344-40.576h-21.376c-24.32 34.304-105.344 40.576-105.344 40.576-115.2 3.584-113.408-48.64-113.408-48.64-4.48-46.848 48.64-65.024 48.64-65.024-29.696-39.68-45.952-83.84-45.952-83.84-72.064 116.352-64.896-16.256-64.896-16.256 13.44-78.464 70.144-130.048 70.144-130.048-8.064-71.296 21.632-83.84 21.632-83.84 6.272-220.544 195.84-216.832 199.936-216.704 3.968-0.128 193.664-3.968 199.808 216.576 0 0 29.696 12.544 21.632 83.84 0 0 56.704 51.456 70.144 130.048 0 0.128 7.168 132.864-64.768 16.384z" fill="#68BEF8" p-id="12166"></path></svg>