<svg class="icon" viewBox="0 0 1024 1024" version="1.1" xmlns="http://www.w3.org/2000/svg" p-id="13050" height="128" width="128"><path d="M512 512m-512 0a512 512 0 1 0 1024 0 512 512 0 1 0-1024 0Z" fill="#F5D67A" p-id="13051"></path><path d="M655.36 591.872c-53.248-4.096-108.544-8.192-161.792-12.288 2.048-2.048 6.144-2.048 8.192-4.096 49.152-34.816 98.304-71.68 149.504-106.496h-8.192c-53.248-22.528-219.136-18.432-266.24 4.096 63.488 4.096 129.024 8.192 192.512 12.288-2.048 2.048-2.048 6.144-4.096 8.192-53.248 34.816-104.448 67.584-157.696 102.4v4.096c96.256 12.288 200.704 2.048 288.768-8.192v4.096h-8.192c-16.384 12.288-18.432 6.144-22.528 34.816 8.192 34.816 14.336 71.68 22.528 106.496l-4.096 4.096h-18.432c-34.816-28.672-98.304-71.68-153.6-77.824-45.056 26.624-90.112 51.2-135.168 77.824-6.144-2.048-12.288-6.144-18.432-8.192l30.72-165.888-122.88-110.592c0-2.048 2.048-6.144 2.048-8.192v-2.048-2.048c53.248-6.144 108.544-14.336 161.792-20.48 28.672-51.2 57.344-102.4 88.064-153.6h8.192c24.576 53.248 49.152 104.448 73.728 157.696 57.344 6.144 114.688 12.288 169.984 16.384 2.048 2.048 2.048 6.144 4.096 8.192-40.96 38.912-81.92 79.872-122.88 118.784v20.48z" fill="#FFFFFF" p-id="13052"></path></svg>