 <svg class="icon" viewBox="0 0 1024 1024" version="1.1" xmlns="http://www.w3.org/2000/svg" p-id="17931" height="128" width="128"><path d="M631.808 635.904 256 635.904c-13.312 0-21.504 8.192-21.504 21.504 0 13.312 8.192 21.504 21.504 21.504l375.808 0c13.312 0 21.504-8.192 21.504-21.504C648.192 644.096 640 635.904 631.808 635.904zM256 427.008l251.904 0c13.312 0 21.504-8.192 21.504-21.504s-8.192-21.504-21.504-21.504L256 384c-13.312 0-21.504 8.192-21.504 21.504S242.688 427.008 256 427.008zM234.496 533.504c0 13.312 8.192 21.504 21.504 21.504l499.712 0c13.312 0 21.504-8.192 21.504-21.504S768 512 755.712 512L256 512C242.688 512 234.496 520.192 234.496 533.504zM836.608 136.192l-102.4 0L734.208 76.8c0-12.288-8.192-21.504-21.504-21.504-13.312 0-21.504 8.192-21.504 21.504l0 63.488-43.008 0L648.192 76.8c0-12.288-8.192-21.504-21.504-21.504s-21.504 8.192-21.504 21.504l0 63.488L563.2 140.288 563.2 76.8c0-12.288-8.192-21.504-21.504-21.504s-21.504 8.192-21.504 21.504l0 63.488-43.008 0L477.184 76.8c0-12.288-8.192-21.504-21.504-21.504s-21.504 8.192-21.504 21.504l0 63.488-43.008 0L391.168 76.8c0-12.288-8.192-21.504-21.504-21.504C358.4 55.296 358.4 64.512 358.4 76.8l0 63.488-43.008 0L315.392 76.8c0-12.288-8.192-21.504-21.504-21.504-13.312 0-21.504 8.192-21.504 21.504l0 63.488-102.4 0c-21.504 0-43.008 17.408-43.008 43.008l0 750.592c0 21.504 17.408 43.008 43.008 43.008l665.6 0c21.504 0 43.008-17.408 43.008-43.008L878.592 179.2C878.592 157.696 862.208 136.192 836.608 136.192zM171.008 929.792 171.008 805.888l128 123.904L171.008 929.792zM836.608 929.792 358.4 929.792 171.008 742.4l0-563.2 102.4 0 0 64.512c0 13.312 8.192 21.504 21.504 21.504 13.312 0 21.504-8.192 21.504-21.504l0-64.512L358.4 179.2l0 64.512c0 13.312 8.192 21.504 21.504 21.504 13.312 0 21.504-8.192 21.504-21.504l0-64.512 43.008 0 0 64.512c0 13.312 8.192 21.504 21.504 21.504s21.504-8.192 21.504-21.504l0-64.512 43.008 0 0 64.512c0 13.312 8.192 21.504 21.504 21.504s21.504-8.192 21.504-21.504l0-64.512L614.4 179.2l0 64.512c0 13.312 8.192 21.504 21.504 21.504s21.504-8.192 21.504-21.504l0-64.512 43.008 0 0 64.512c0 13.312 8.192 21.504 21.504 21.504 12.288 0 21.504-8.192 21.504-21.504l0-64.512 102.4 0 0 750.592L836.608 929.792z" p-id="17932"></path></svg>