 <svg class="icon" viewBox="0 0 1024 1024" version="1.1" xmlns="http://www.w3.org/2000/svg" p-id="1368" height="128" width="128"><path d="M853.333333 213.333333V106.666667H170.666667v106.666666l-106.666667 192c0 51.2 36.266667 93.866667 85.333333 104.533334V938.666667h725.333334V509.866667c49.066667-10.666667 85.333333-53.333333 85.333333-104.533334l-106.666667-192zM213.333333 149.333333h597.333334v64H213.333333V149.333333z m426.666667 746.666667H384V640h256v256z m42.666667 0V597.333333H341.333333v298.666667H192V509.866667c25.6-4.266667 49.066667-19.2 64-40.533334 19.2 25.6 51.2 42.666667 85.333333 42.666667s66.133333-17.066667 85.333334-42.666667c19.2 25.6 51.2 42.666667 85.333333 42.666667s66.133333-17.066667 85.333333-42.666667c19.2 25.6 51.2 42.666667 85.333334 42.666667s66.133333-17.066667 85.333333-42.666667c14.933333 21.333333 38.4 36.266667 64 40.533334V896h-149.333333z m170.666666-426.666667c-21.333333 0-38.4-8.533333-51.2-25.6L768 398.933333l-34.133333 44.8c-12.8 17.066667-32 25.6-51.2 25.6-21.333333 0-38.4-8.533333-51.2-25.6L597.333333 398.933333l-34.133333 44.8c-12.8 17.066667-32 25.6-51.2 25.6-21.333333 0-38.4-8.533333-51.2-25.6L426.666667 398.933333l-34.133334 44.8c-12.8 17.066667-32 25.6-51.2 25.6-21.333333 0-38.4-8.533333-51.2-25.6L256 398.933333l-34.133333 44.8C209.066667 460.8 189.866667 469.333333 170.666667 469.333333c-32 0-57.6-23.466667-64-53.333333L196.266667 256h631.466666l89.6 160c-6.4 29.866667-32 53.333333-64 53.333333z" p-id="1369"></path></svg>