 <svg class="icon" viewBox="0 0 1024 1024" version="1.1" xmlns="http://www.w3.org/2000/svg" p-id="2828" height="128" width="128"><path d="M646.5 327.6c9.6-59.6-2.9-121.9-39.4-170.7-33.7-45-82.7-77.8-138.5-87.8-56.8-10.3-116.7 0.6-165 32.9-46.6 31.2-81.2 79.1-94.2 133.9-14.9 62.7-2.3 131.5 36.2 183.5 5.4 7.2 11 14.3 17 20.9 8.1 8.9 24.4 8.9 32.5 0 8.8-9.5 8.7-23 0-32.5-2.3-2.5-4.5-5-6.7-7.7-1.1-1.4-2.2-3-3.4-4.3l1.2 1.6c-0.8-1.1-1.6-2.1-2.3-3.1-4.1-5.7-8-11.7-11.5-17.8-3.7-6.4-6.9-13-9.9-19.7-1.1-2.3 0.8 1.8 0.8 1.8-0.2-0.7-0.6-1.5-0.9-2.2-0.7-1.7-1.3-3.5-2-5.2-1.3-3.5-2.5-7-3.5-10.6-2.2-7.2-4-14.6-5.3-22-0.3-1.6-0.6-3.2-0.8-4.8-0.1-0.9-0.5-2.2-0.5-3.2 0 0 0.5 4.7 0.3 2-0.4-4.1-0.9-8.2-1.1-12.4-0.4-6.9-0.4-13.9-0.1-20.9 0.1-3 0.3-6 0.6-9 0.1-1.6 0.3-3.2 0.5-4.8 0.6-5.4-0.7 4.8 0.1-0.7 1.8-12.3 4.8-24.4 8.9-36.1l3-8.1c0.7-1.8 3.2-5.7 0 0 0.8-1.3 1.3-2.9 1.9-4.2 2.6-5.6 5.4-11.1 8.5-16.4 3-5.1 6.2-10.1 9.6-15 0.9-1.3 1.8-2.5 2.7-3.7 1.1-1.5 4.5-4.8 0 0 2.1-2.2 3.8-4.8 5.8-7.1 7.8-9.1 16.5-17.5 25.8-25.1l1.5-1.2c2.9-2.4-1.3 1-1.6 1.2 1.1-0.7 2.1-1.6 3.2-2.4 2.6-1.9 5.3-3.8 8.1-5.6 4.9-3.3 10-6.3 15.3-9.1 2.5-1.4 5.1-2.7 7.7-3.9 1.4-0.7 2.8-1.3 4.2-2 0.6-0.3 1.2-0.5 1.8-0.8 3.3-1.5 0.4-0.1-1.2 0.5 5.7-1.9 11.2-4.4 16.9-6.2 6-1.9 12.1-3.5 18.3-4.8 2.9-0.6 5.8-1.2 8.7-1.7 1.6-0.3 3.2-0.5 4.7-0.7 2.6-0.4-3 0.4-2.7 0.4l2.7-0.3c13-1.4 26.1-1.6 39.1-0.5 1.4 0.1 2.8 0.2 4.1 0.4 1.1 0.1 6.4 0.8 2.4 0.2-4-0.6 0.8 0.1 1.7 0.3l5.4 0.9c6.2 1.1 12.4 2.6 18.5 4.3 5.8 1.7 11.5 3.6 17.1 5.7 1.4 0.6 2.9 1.2 4.3 1.7 2.3 0.9-2.6-1.1-2.4-1 0.7 0.4 1.7 0.7 2.4 1.1 2.8 1.3 5.6 2.6 8.4 4 10.9 5.5 20.7 12.2 30.7 19.2 2 1.4-2.2-1.7-2.1-1.6 0.6 0.6 1.4 1.1 2.1 1.6 1 0.8 2 1.7 3 2.5l6.9 6c4.5 4.1 8.8 8.5 12.9 13 1.9 2.1 3.8 4.2 5.6 6.4 1 1.2 1.9 2.4 2.9 3.6 0.5 0.6 1.9 2.5-0.2-0.3-2.5-3.2 0.3 0.4 0.6 0.8 3.5 4.7 6.8 9.7 9.9 14.7 3.2 5.2 6.2 10.6 8.9 16.2 1.3 2.6 2.4 5.2 3.6 7.8 1.7 3.6-2-5.1 0 0 0.6 1.4 1.2 2.9 1.7 4.3 4.4 11.6 7.7 23.5 9.8 35.7 0.3 1.6 0.5 3.1 0.8 4.7 0.1 0.7 0.2 1.4 0.3 2 0.5 3-0.6-5.1-0.3-2 0.3 3.2 0.7 6.4 0.9 9.6 0.5 6.8 0.6 13.5 0.5 20.3-0.1 4.3-0.4 8.6-0.8 12.9-0.2 1.8-0.4 3.7-0.6 5.5-0.5 4.4 0.1 0 0.1-0.7 0 1.1-0.4 2.5-0.6 3.6-1 6.3-1 12 2.3 17.7 2.8 4.8 8.3 9.3 13.7 10.6 11.2 2.5 26.4-3.4 28.5-16.1zM388.3 598V489.5 336.6c0-5-0.1-9.9 0-14.9v-1.5c0-0.8 0.2-1.5 0.2-2.3 0.3-3.3-1.1 7.6-0.6 4.1 0.1-0.8 0.3-1.7 0.4-2.5 0.8-4.3 1.9-8.5 3.2-12.7 0.4-1.2 0.8-2.5 1.3-3.7 2-5.4-1.8 3.9-0.6 1.3 1.4-2.9 2.7-5.8 4.4-8.6 1.5-2.5 3.2-4.7 4.8-7.1-4.4 7-1.2 1.6 0.4-0.2 1.3-1.4 2.6-2.7 3.9-4 1.1-1.1 2.6-2 3.6-3.1-3.8 4.4-3.6 2.7-1.5 1.2 0.8-0.6 1.7-1.1 2.5-1.7 1.5-0.9 2.9-1.8 4.5-2.6 2.2-1.2 8.7-3.1 1.4-0.9 4.2-1.2 8.2-2.8 12.5-3.7 1.2-0.3 2.5-0.5 3.8-0.7 1.8-0.3 3.4 0.3-2.2 0.3 2.3 0 4.6-0.6 6.9-0.6 1.6 0 3.2 0.1 4.8 0.3 0.7 0.1 1.4 0.2 2 0.2 2.6 0.3-7.9-1.2-3.3-0.4 2.3 0.4 4.5 0.8 6.7 1.3 2.4 0.5 4.7 1.2 7.1 1.9 1.1 0.4 2.3 0.7 3.4 1.2 2.2 0.8 7.2 3.6-0.6-0.4 2.6 1.3 5.3 2.5 7.8 4 1.2 0.7 2.4 1.4 3.5 2.2 0.7 0.5 1.4 1 2.1 1.4 4 2.7-3-2.5-1.6-1.2 2.3 2.1 4.7 4.1 6.8 6.4l1.8 2.1c2.6 2.8-3.1-4.3-1.6-2.1 1.2 1.8 2.4 3.4 3.5 5.3 0.9 1.5 1.7 3 2.4 4.5 2.5 5.1-1.8-5 0.2 0.4 1.6 4.4 2.8 8.9 3.6 13.5 0.4 2.4-0.4 4.9-0.1-1.1 0 0.8 0.2 1.9 0.3 2.6 0.2 2.5 0.3 5 0.3 7.5V533.2c0 12 10.6 23.6 23 23 12.5-0.6 23-10.1 23-23V354c0-19.6 1.5-39.8-3.4-58.9-4.4-17.5-14.3-34-28.4-45.3-17.5-14-40.8-23.2-63.5-23.1-19.1 0.1-39.7 6.5-55 18-15.2 11.3-25.5 25.9-32.6 43.3-4.6 11.4-7.4 23.8-7.4 36.1V597.7c0 12 10.6 23.6 23 23 12.8-0.2 23.3-9.8 23.3-22.7zM526.3 416.9c2.4-0.9 4.9-1.5 7.4-2 1.2-0.2 2.3-0.5 3.5-0.7l2.1-0.3c-9.3 1.6-5 0.6-2.7 0.4 3.4-0.3 6.9-0.5 10.3-0.3 1.8 0.1 3.6 0.2 5.4 0.4 4.2 0.3-6.6-1.2-2.4-0.3 1.1 0.2 2.3 0.4 3.4 0.6 2.1 0.4 4.2 1 6.2 1.6 1.1 0.3 2.1 0.7 3.1 1.1 4.5 1.6-4.5-2.2-1.6-0.7 2.1 1.1 4.3 2.1 6.3 3.3 1.1 0.6 2.1 1.3 3.1 2 0.5 0.4 1 0.7 1.6 1.1 2.9 1.9-3.9-3.3-2-1.5 1.9 1.7 3.9 3.3 5.7 5.1 1 1 2 2.1 2.9 3.1 0.7 0.8 4.4 5.4 1.8 2-2.7-3.5 0.8 1.3 1.3 2l2.7 4.2c1.9 3.2 3.7 6.6 5.3 10 0.4 0.8 0.7 1.8 1.2 2.6 0 0.1-1.8-4.5-0.9-2.1 0.7 1.9 1.5 3.8 2.1 5.7 0.3 0.8 1.6 3.9 0.6 0.9s-0.2 0.5-0.2 1.6V569.3c0 12 10.6 23.6 23 23 12.5-0.6 23-10.1 23-23v-52.2-50.2c0-5 0.3-10.2 0-15.2-0.4-6-2.5-11.4-4.8-16.9-3.5-8.4-7.2-16.7-12.3-24.3-8.3-12.3-18.7-23.2-31.7-30.7-11.4-6.6-23.5-9.8-36.4-11.4-12.7-1.5-27.2-0.4-39.3 4-11.2 4.2-20.1 15.8-16.1 28.3 3.7 11.1 16.3 20.7 28.4 16.2zM631.2 454.2c1.7-0.6 3.5-1 5.2-1.4 2-0.5 4-0.8 6.1-1.2 5-0.8-6.6 0.7-2 0.3 1.3-0.1 2.7-0.3 4-0.4 3.1-0.2 6.2-0.3 9.2-0.1l4.8 0.3c0.2 0 2.2 0.3 2.3 0.3 0 0.1-5.7-0.9-4.2-0.6 0.6 0.2 1.3 0.2 1.9 0.3 3.5 0.6 6.9 1.5 10.3 2.7 0.9 0.3 1.9 0.7 2.8 1 1.3 0.4-5.8-2.7-2.3-1 1.9 0.9 3.8 1.8 5.6 2.9 1.8 1 3.4 2.1 5.1 3.3 3 2.1-0.4 0-1.6-1.3 0.9 0.9 2.1 1.7 3 2.6 1.5 1.4 3 2.9 4.4 4.4 0.9 0.9 1.7 1.9 2.5 2.8 3.1 3.5-2.5-3.6-0.5-0.7 3.1 4.6 6 9.3 8.4 14.4 0.4 0.8 2.3 5.1 0.8 1.6-1.6-3.6 0.6 1.8 0.9 2.5 0.5 1.4 0.9 2.8 1.4 4.2 0.3 0.7 0.6 3 0.3 0.1-0.4-3.3-0.2 0.9-0.2 1.6V600.9c0 12 10.6 23.6 23 23 12.5-0.6 23-10.1 23-23V495.7c0-5.4 0.2-10.9-1.5-16.1-1.1-3.5-2.3-6.9-3.7-10.2-2.9-7-5.9-13.9-10-20.3-7.2-11.3-16.1-20.5-26.9-28.3-15.2-10.8-34.9-15.7-53.4-15.6-10.2 0.1-21.2 1.2-30.9 4.5-11.4 3.9-20.1 16-16.1 28.3 3.7 11.4 16.1 20.4 28.3 16.2zM741.7 492.1c0.9-0.2 1.8-0.3 2.7-0.5 3.2-0.5-7.7 0.9-4.4 0.6 0.6-0.1 1.2-0.1 1.7-0.1 1.5-0.2 2.9-0.3 4.3-0.4 3.6-0.2 7.3-0.3 10.9-0.1 2.1 0.1 4.2 0.2 6.3 0.4 1.2 0.1 5.4 0.7 0.3 0-5.2-0.7-0.3 0 1.1 0.2 4.8 0.9 9.6 2.1 14.2 3.9 5.5 2.1-3.7-1.8-1.2-0.5 1.2 0.6 2.4 1.1 3.5 1.7 2.4 1.2 4.7 2.6 6.9 4.2 0.6 0.4 1.1 0.8 1.7 1.2 2.2 1.5-5-4.2-2.4-1.8 1 1 2.2 1.8 3.2 2.8 2.1 2 3.9 4.5 6 6.5-5.3-5.2-1.7-2.2-0.3-0.1 0.9 1.3 1.7 2.7 2.5 4.1 0.7 1.2 1.3 2.4 1.9 3.6 0.5 0.9 0.8 1.9 1.3 2.8-0.9-1.6-2.1-5.3-0.7-1.5 1.3 3.4 2.3 6.9 3.2 10.4 0.4 1.8 0.8 3.6 1.2 5.5 0.2 1.3 0.4 2.5 0.6 3.8 0.7 4.3-0.6-5.6-0.1-0.8 1.1 12 0.5 24.2 0.5 36.3v147.2c0 5.9 0.2 11.8-0.2 17.6-0.3 4.7-0.7 9.4-1.3 14.1l-0.3 2.1c-0.5 4.1 1-7.2 0.4-3.1-0.3 1.9-0.5 3.8-0.8 5.6-0.6 3.9-1.3 7.8-2.1 11.6-1.9 9.3-4.2 18.5-7 27.5-1.6 5-3.3 10-5.2 14.9-0.9 2.4-4.9 11.4-1.1 2.9-1.2 2.5-2.2 5.1-3.4 7.7-5 10.5-10.7 20.7-17.5 30.2-0.9 1.2-1.8 2.4-2.6 3.6-3.1 4.3 3.7-4.6 0.3-0.3-1.9 2.4-3.9 4.7-5.9 7-4.1 4.7-8.5 9.1-13.2 13.2-2.4 2.1-5 4-7.3 6.1-0.1 0.1 5.1-3.8 2.4-1.8-0.7 0.5-1.3 1-2 1.4-1.5 1.1-2.9 2.1-4.4 3.1-5.6 3.8-11.4 7.2-17.5 10.1-1.6 0.8-3.1 1.5-4.7 2.2-0.6 0.3-1.3 0.6-1.9 0.9-3.7 1.7 4.8-1.9 2.1-0.9-3.6 1.3-7.1 2.7-10.7 3.9-7.3 2.4-14.8 4.3-22.3 5.7-2 0.4-4 0.7-6 1-0.8 0.1-1.6 0.2-2.4 0.4 6.9-1.2 3.5-0.4 1.8-0.3-4.5 0.5-9 0.8-13.5 1.1-3.6 0.3-7.3 1-10.9 1.5-2.8 0.4-5.6 0.9-8.5 1.3-0.8 0.1-1.6 0.2-2.3 0.3-0.4 0.1 7.5-1 3-0.4-2.3 0.3-4.5 0.6-6.8 0.8-23.4 2.6-47.1 2.9-70.5 0.8-3.4-0.3-6.9-0.7-10.3-1.1-6.1-0.7 5.6 0.8-0.5-0.1-2.1-0.3-4.1-0.6-6.2-1-7.7-1.3-15.4-2.8-23-4.7-8-2-15.8-4.3-23.6-6.9-3.8-1.3-7.6-2.7-11.3-4.2-1.6-0.6-8.4-4.1-1.7-0.6-2.1-1.1-4.4-1.9-6.6-2.9-7.9-3.7-15.6-7.8-23.1-12.2-4-2.4-7.9-4.9-11.7-7.5-1.9-1.3-3.9-2.7-5.8-4-1.7-1.3-3.8-3.5-5.7-4.3l2.4 1.8c-0.8-0.6-1.5-1.2-2.3-1.8-0.8-0.6-1.5-1.2-2.3-1.8-1.9-1.6-3.8-3.2-5.6-4.8-3.8-3.3-7.5-6.7-11-10.3-6.1-6-11.6-12.6-17.5-18.8-17.2-18-34.7-35.8-52.1-53.7-37.5-38.4-75-76.6-112.7-114.8-3-3-5.9-6.4-9.1-9.2-1.9-1.7 4.6 6.4 3.3 4.2-0.6-1-1.4-2-2-3-2.6-4.2-4.9-8.6-7-13.1-2.3-4.8 1.9 5 0.2 0.5-0.6-1.5-1.1-3-1.7-4.5-1.4-3.9-2.5-8-3.3-12-0.3-1.6-0.5-3.2-0.8-4.7 1.7 7.8 0.2 0.9 0.1-1.2s-0.1-4.2 0-6.3c0-0.9 0.1-1.7 0.2-2.6 0.1-0.9 0.2-1.7 0.3-2.6-0.5 3.7-0.6 4.7-0.3 2.9 1.3-4.1 2.2-8.3 3.5-12.4-2.1 6.5 0.5-0.6 1.5-2.3 0.5-0.9 1-1.7 1.6-2.6 0.4-0.7 4.3-5.2 1.9-2.8-2.5 2.5 2.2-2.4 2.8-2.9 0.5-0.5 1-0.9 1.5-1.4l3.9-3.9c1.5-1.5 3-2.9 4.5-4.3l2.7-2.4c1-0.8 5.1-4.1 1.3-1.2-3.8 2.9 0 0 1-0.7l3.6-2.4c1.3-0.8 2.6-1.5 3.9-2.2 0.5-0.3 1.1-0.5 1.6-0.8 4.4-2.3-3.4 1.2-1.6 0.6 3-1 5.9-2.1 9-2.8 2.3-0.5 8.1-0.4 0.2-0.2 1.9 0 3.7-0.3 5.6-0.4 2 0 3.9 0 5.9 0.2 0.8 0.1 4.9 0.7 0.7 0-4.3-0.7 0 0 0.8 0.2 4.7 0.9 9.2 2.1 13.7 3.8 1.3 0.5 6.2 1.6 0.4 0 1 0.3 2.2 1 3 1.4 2.7 1.2 5.3 2.6 7.8 4 5.4 3 10.1 7.1 15 10.9 7.3 5.6 14.7 11.3 22 16.9a2680.541 2680.541 0 0 1 22.7 17.5c4.4 3.4 12.7 3.7 17.7 2.3 5.3-1.5 11.1-5.6 13.7-10.6 2.8-5.3 4.2-11.8 2.3-17.7-2-6.1-5.5-9.9-10.6-13.7-8.8-6.8-17.6-13.5-26.4-20.3-8.3-6.3-16.5-12.7-24.8-19-10.3-7.9-22.6-13.6-35.1-17.5-18.1-5.6-38.6-6.1-56.4 0.9-13.8 5.4-25.5 13.7-36.1 24.2-12.6 12.5-23.2 26.1-28.1 43.5-5.3 19.1-3.5 40.3 3.3 58.8 3.7 10.1 8.2 20.4 14.5 29.2 8.1 11.3 19.3 20.7 29 30.5 20 20.4 40 40.7 60 61.1 21.6 22 43.1 44 64.6 66.1 20.8 21.5 40.3 44.8 63.9 63.2 56.3 43.9 126.6 63.2 197.5 61.5 19.7-0.5 39.2-2.7 58.6-5.8 0.9-0.1 1.8-0.3 2.7-0.4 0.4-0.1 0.7-0.1 1.1-0.2-10.9 1.8-4.6 0.7-1.5 0.5 10.3-0.7 20.7-2.1 30.8-4.1 16.4-3.3 32.3-9 47.3-16.5 49.6-24.9 81.5-73.4 97.6-125.2 5.7-18.4 9.3-37.3 11.5-56.4 0.7-6 1.3-12.1 1.4-18.2 0.6-59 0-118.1 0-177.1 0-22-2.5-42.9-12.3-62.8-6.9-14.1-18.2-26-31.4-34.4-18.5-11.7-42-15.9-63.6-14.4-5.2 0.4-10.5 0.9-15.7 2-11.8 2.4-19.7 17-16.1 28.3 4 12.9 15.6 19 28.2 16.5z" p-id="2829"></path></svg>