 <svg class="icon" viewBox="0 0 1024 1024" version="1.1" xmlns="http://www.w3.org/2000/svg" p-id="10373" height="128" width="128"><path d="M652.8 1024L576 940.8c121.6-108.8 204.8-262.4 204.8-435.2 0-166.4-70.4-320-185.6-422.4L672 0c134.4 128 217.6 307.2 217.6 505.6 0 204.8-89.6 390.4-236.8 518.4z" fill="#333333" p-id="10374"></path><path d="M435.2 806.4l-83.2-83.2c76.8-44.8 128-121.6 128-217.6 0-83.2-44.8-160-108.8-204.8l83.2-83.2c83.2 64 140.8 172.8 140.8 288 0 121.6-64 230.4-160 300.8zM217.6 601.6c-44.8 0-83.2-38.4-83.2-83.2 0-44.8 38.4-83.2 83.2-83.2 44.8 0 83.2 38.4 83.2 83.2 0 44.8-38.4 83.2-83.2 83.2z" fill="#333333" p-id="10375"></path></svg>