 <svg class="icon" viewBox="0 0 1024 1024" version="1.1" xmlns="http://www.w3.org/2000/svg" p-id="7550" height="128" width="128"><path d="M717.272665 64.603367c-9.987468 0.37453-99.274004 4.89959-149.143808 54.770418-12.576433 12.545734-12.576433 32.893154-0.248664 45.437865 12.45159 12.701277 32.674167 12.576433 45.156456 0.155542 27.339672-27.275203 86.134753-35.326577 105.358583-36.07666 132.540665 0 240.394069 96.089475 240.394069 214.148312 0 211.277938-359.608218 483.598136-444.524213 545.014928-85.791945-60.916395-450.424596-332.488557-450.424596-545.013905 0-118.058836 107.823728-214.148311 240.36337-214.148311 70.529333 0 137.502677 28.52466 182.628434 76.646657l155.22634 187.778734c11.234879 13.544481 31.301913 15.540951 44.878117 4.119831 13.605879-11.2973 15.47853-31.645744 4.118807-45.345768L534.579763 162.814156c-58.420551-62.415538-142.401244-98.210789-230.375901-98.210789-167.774121 0-304.182884 124.95592-304.182884 278.4365 0 273.694499 476.450343 597.256756 496.67292 610.957803 5.429663 3.495614 11.577686 5.39794 17.757432 5.39794 6.272867 0 12.515035-1.902326 17.882276-5.523807 20.098757-13.701047 490.308979-338.510714 490.308978-610.831936-0.001023-153.48058-136.536676-278.4365-305.369919-278.4365z m0 0" p-id="7551"></path></svg>