 <svg class="icon" viewBox="0 0 1024 1024" version="1.1" xmlns="http://www.w3.org/2000/svg" p-id="5196" height="128" width="128"><path d="M195.503686 202.651608h160.306196c14.757647 0 26.704314-11.344314 26.704314-25.017726S370.587608 152.596078 355.829961 152.596078H195.503686c-14.757647 0-26.704314 11.344314-26.704313 25.017726 0 13.653333 11.946667 25.017725 26.704313 25.017725zM592.112941 498.647843h159.643608c59.030588 0 106.87749-44.353255 106.87749-99.046902v-147.937882c0-54.713725-47.846902-99.046902-106.87749-99.046902h-159.623529c-59.030588 0-106.897569 44.333176-106.897569 99.046902v147.937882c0 54.713725 47.846902 99.046902 106.87749 99.046902z m-54.412549-246.462745c0-27.366902 23.93349-49.53349 53.428706-49.53349h160.065255c29.515294 0 53.428706 22.166588 53.428706 49.53349v148.319373c0 27.346824-23.913412 49.53349-53.428706 49.53349h-160.065255c-29.515294 0-53.428706-22.186667-53.428706-49.53349V252.185098z m-38.711216 346.553726H181.990902c-7.288471 0-13.211608 10.641569-13.211608 24.31498 0 13.69349 5.923137 24.294902 13.211608 24.294902h317.018353c7.288471 0 13.211608-10.601412 13.211608-24.294902 0-13.69349-5.923137-24.294902-13.211608-24.294902z m-129.044078 148.720941H181.348392c-6.947137 0-12.569098 10.62149-12.569098 24.294902 0 13.69349 5.621961 24.31498 12.569098 24.31498h188.616784c6.927059 0 12.569098-10.62149 12.569099-24.294902 0-13.69349-5.621961-24.31498-12.569099-24.31498z m-174.481569-397.512785h160.326275c14.757647 0 26.704314-10.641569 26.704314-24.31498 0-13.69349-11.946667-24.294902-26.704314-24.294902H195.503686c-14.757647 0-26.704314 10.601412-26.704313 24.294902 0 13.69349 11.946667 24.294902 26.704313 24.294902z m0 148.700863h160.326275c14.757647 0 26.704314-10.62149 26.704314-24.294902 0-13.69349-11.946667-24.31498-26.704314-24.31498H195.503686c-14.757647 0-26.704314 10.62149-26.704313 24.294902 0 13.69349 11.946667 24.31498 26.704313 24.31498z m393.657726 471.883294H191.467922c-73.788235 0-133.601882-55.436549-133.601883-123.823686V177.754353c0-68.387137 59.813647-123.803608 133.601883-123.803608H833.054118c73.788235 0 133.601882 55.416471 133.601882 123.803608v427.530039a266.601412 266.601412 0 0 1 52.464941 63.86949v-491.921568c0-95.733961-83.727059-173.337098-187.030588-173.337098H190.905725C87.602196 3.895216 3.875137 81.498353 3.875137 177.232314v668.571608c0 95.733961 83.727059 173.337098 187.030588 173.337098h451.443451c-19.877647-13.733647-37.787608-30.117647-53.207843-48.609883z m199.579608-412.872784c-127.437804 0-230.741333 103.323608-230.741334 230.741333 0 127.437804 103.303529 230.741333 230.741334 230.741334 127.437804 0 230.741333-103.303529 230.741333-230.741334 0-127.417725-103.303529-230.741333-230.741333-230.741333z m91.557647 218.895059c10.902588 2.208627 17.448157 8.171922 19.636706 17.990274-1.084235 12.006902-7.629804 17.970196-19.616628 17.970196H819.802353v27.808628h60.496314c10.88251 2.208627 17.428078 8.171922 19.616627 17.990274-1.084235 12.006902-7.629804 17.990275-19.616627 17.990275H819.802353v50.698039c-1.104314 18.532392-11.444706 27.788549-31.081412 27.788549-20.720941 0-31.061333-9.236078-31.061333-27.788549v-50.698039H697.123137c-13.071059 0-19.616627-5.983373-19.616627-17.990275 1.064157-9.818353 7.629804-15.801725 19.616627-17.990274h60.516392v-27.808628H697.123137c-13.071059 0-19.616627-5.963294-19.616627-17.970196 1.064157-9.838431 7.629804-15.801725 19.616627-17.990274h34.334118l-52.324392-73.587451c-5.461333-4.35702-7.629804-10.360471-6.52549-17.990275 1.064157-18.532392 11.444706-28.872784 31.061333-31.081411 9.818353 1.104314 17.990275 5.481412 24.535843 13.091137l60.496314 86.65851 60.496313-86.65851c5.461333-7.629804 13.633255-11.986824 24.535844-13.091137 18.532392 2.208627 28.872784 12.54902 31.081411 31.081411 0 7.629804-2.208627 13.653333-6.545568 17.990275l-52.324392 73.587451h34.334117z" p-id="5197"></path></svg>