 <svg class="icon" viewBox="0 0 1024 1024" version="1.1" xmlns="http://www.w3.org/2000/svg" p-id="6276" height="128" width="128"><path d="M367.010848 569.209983h-115.593968c-15.894171 0-28.898492-12.823706-28.898492-28.898492 0-15.894171 13.004321-28.898492 28.898492-28.898492h86.605168v-86.605168c0-15.894171 13.004321-28.898492 28.898492-28.898492s28.898492 13.004321 28.898492 28.898492v115.593968c0 15.894171-12.823706 28.808184-28.808184 28.808184z m315.986947 82.089779c-55.90052 0-102.589646 39.103272-114.871505 91.210865h-111.710733c-12.281859-52.197901-58.970985-91.301173-114.871505-91.301173-65.29253 0-118.303201 53.100979-118.303202 118.303201 0 65.29253 53.100979 118.393509 118.303202 118.39351 54.455596 0 99.970721-37.297116 113.607196-87.598554h114.058735c13.636476 50.301438 59.151601 87.508246 113.787812 87.508246 65.202222 0 118.303201-53.100979 118.303202-118.303202-0.090308-65.29253-53.100979-118.212894-118.303202-118.212893z m-341.453743 178.809419c-33.413881 0-60.506217-27.182644-60.506218-60.686833 0-33.413881 27.182644-60.506217 60.506218-60.506218 33.413881 0 60.506217 27.182644 60.506217 60.506218 0 33.504189-27.182644 60.686833-60.506217 60.686833z m341.453743 0c-33.413881 0-60.506217-27.182644-60.506217-60.506218s27.182644-60.506217 60.506217-60.506217c33.413881 0 60.41591 27.182644 60.41591 60.506217s-27.002028 60.506217-60.41591 60.506218z m146.027692-694.015346h-418.937825c-39.645119 0-71.975306 32.23988-71.975306 71.975307v83.444395l-175.648647 88.321016c-1.264309 0.632155-2.43831 1.354617-3.612311 2.167387-32.601111 22.84787-50.482053 58.609754-50.482053 100.693183V773.215275c0 15.984478 13.004321 28.898492 28.898492 28.898492s28.898492-12.823706 28.898492-28.898492v-290.520152c0-22.576947 8.218009-40.096658 24.383102-52.197901l189.556046-95.184408c1.354617-0.632155 2.167387-1.806156 3.25108-2.618926 1.715848-1.264309 3.341388-2.257695 4.876621-3.702619 1.264309-1.354617 2.167387-3.070465 3.070464-4.605697 0.993386-1.535232 1.986771-3.070465 2.709234-4.696005 0.632155-1.896464 0.903078-3.973543 1.264309-6.050622 0.180616-1.444925 0.81277-2.709234 0.81277-4.06385v-101.325338c0-7.76647 6.411853-14.178323 14.178323-14.178322H829.025487c15.894171 0 28.898492 13.184937 28.898492 29.350031v548.168269c0 15.984478 13.004321 28.898492 28.898492 28.898491 15.984478 0 28.898492-13.004321 28.898492-28.898491v-548.168269c0-48.314666-38.922656-87.32763-86.695476-87.327631z" p-id="6277"></path></svg>