 <svg class="icon" viewBox="0 0 1024 1024" version="1.1" xmlns="http://www.w3.org/2000/svg" p-id="10306" height="128" width="128"><path d="M511.91808 800.2048c-21.58592 0-39.12704-17.54112-39.12704-39.13216V415.99488c0-21.58592 17.54112-39.12192 39.12704-39.12192a39.14752 39.14752 0 0 1 39.12704 39.12192v345.07776a39.15264 39.15264 0 0 1-39.12704 39.13216z m0 0M463.34976 288.13824a48.5632 48.5632 0 1 0 97.13664 0c0-26.82368-21.74464-48.57344-48.56832-48.57344-26.81856 0-48.56832 21.74976-48.56832 48.57344z m0 0M511.91808 976.42496c-256.13312 0-464.43008-208.29184-464.43008-464.43008 0-256.13312 208.29696-464.42496 464.43008-464.42496 256.13824 0 464.43008 208.29184 464.43008 464.42496 0 256.13824-208.28672 464.43008-464.43008 464.43008z m0-872.91392c-225.20832 0-408.48896 183.27552-408.48896 408.48384s183.28064 408.48896 408.48896 408.48896c225.21344 0 408.48896-183.28064 408.48896-408.48896s-183.2704-408.48384-408.48896-408.48384z m0 0" p-id="10307"></path></svg>