 <svg class="icon" viewBox="0 0 1024 1024" version="1.1" xmlns="http://www.w3.org/2000/svg" p-id="9538" height="128" width="128"><path d="M512.662 959.213h-0.657c-15.538 0-30.569-6.444-41.236-17.682-8.425-8.823-84.958-89.66-161.057-192.04-102.754-138.235-154.853-248.443-154.853-327.558 0-196.933 160.212-357.146 357.146-357.146C708.929 64.787 869.14 225 869.14 421.933c0 47.868-18.409 106.484-54.718 174.22-35.014 65.313-87.674 141.189-156.519 225.52l-0.57 0.677-102.478 117.391c-10.859 12.393-26.227 19.472-42.193 19.472z m-0.657-840.67c-167.292 0-303.39 136.099-303.39 303.39 0 66.363 49.876 168.542 144.236 295.493 75.456 101.513 153.566 183.6 156.853 187.046 0.625 0.657 1.424 0.99 2.301 0.99h0.657c0.237 0 1.004-0.278 1.734-1.114L616.544 787.33c66.532-81.521 117.165-154.388 150.499-216.574 32.079-59.84 48.347-109.911 48.347-148.824 0-167.291-136.098-303.389-303.385-303.389z m0 470.572c-92.189 0-167.183-74.999-167.183-167.182 0-92.184 74.994-167.182 167.183-167.182 92.183 0 167.182 74.998 167.182 167.182 0 92.183-74.999 167.182-167.182 167.182z m0-280.613c-62.547 0-113.432 50.883-113.432 113.431 0 62.542 50.885 113.426 113.432 113.426 62.542 0 113.426-50.885 113.426-113.426 0-62.548-50.884-113.431-113.426-113.431z m0 0" fill="" p-id="9539"></path></svg>