 <svg class="icon" viewBox="0 0 1024 1024" version="1.1" xmlns="http://www.w3.org/2000/svg" p-id="8879" height="128" width="128"><path d="M799 383.25h-64a223.5 223.5 0 1 0-447 0h-64a287.5 287.5 0 0 1 575 0zM576 864v-64c63.16 0 103.29-10.71 126.29-33.71S736 703.16 736 640h64c0 81.25-16.67 135.75-52.46 171.54S657.25 864 576 864z" fill="#6D6D6D" p-id="8880"></path><path d="M256 384a64.07 64.07 0 0 1 64 64v128a64 64 0 0 1-128 0V448a64.07 64.07 0 0 1 64-64m0-64a128 128 0 0 0-128 128v128a128 128 0 0 0 256 0V448a128 128 0 0 0-128-128zM768.5 384.5a64.07 64.07 0 0 1 64 64v128a64 64 0 0 1-128 0v-128a64.07 64.07 0 0 1 64-64m0-64a128 128 0 0 0-128 128v128a128 128 0 0 0 256 0v-128a128 128 0 0 0-128-128zM576 768a64 64 0 0 0-64 64 64 64 0 0 0 128 0 64 64 0 0 0-64-64z" fill="#6D6D6D" p-id="8881"></path></svg>