 <svg class="icon" viewBox="0 0 1024 1024" version="1.1" xmlns="http://www.w3.org/2000/svg" p-id="6935" height="128" width="128"><path d="M802.523429 212.553143h-89.380572v-21.357714c0-9.362286-1.901714-18.285714-5.412571-26.477715-3.510857-8.192-8.484571-15.506286-14.628572-21.650285-9.216-9.216-21.065143-15.798857-34.377143-18.578286-4.388571-0.877714-9.069714-1.316571-13.750857-1.316572H601.234286V78.409143H422.619429v44.763428H378.88c-9.362286 0-18.285714 1.901714-26.477714 5.412572-16.237714 6.875429-29.257143 19.894857-36.132572 36.132571-3.510857 8.192-5.412571 17.115429-5.412571 26.477715v21.357714h-89.380572c-49.444571 0-89.380571 40.082286-89.380571 89.380571v581.193143c0 49.444571 40.082286 89.380571 89.380571 89.380572h581.193143c49.444571 0 89.380571-40.082286 89.380572-89.380572V301.933714c0-49.298286-40.082286-89.380571-89.526857-89.380571zM355.474286 257.316571v-66.121142c0-6.436571 2.633143-12.288 6.875428-16.384 2.048-2.048 4.681143-3.803429 7.460572-4.973715 2.779429-1.170286 5.851429-1.901714 9.069714-1.901714h88.502857V123.172571h89.380572v44.763429H645.12c6.436571 0 12.288 2.633143 16.384 6.875429 4.242286 4.242286 6.875429 10.093714 6.875429 16.384v110.884571H355.474286v-44.763429z m491.812571 625.810286c0 24.722286-20.041143 44.763429-44.763428 44.763429H221.476571c-24.722286 0-44.763429-20.041143-44.763428-44.763429V301.933714c0-24.576 20.041143-44.763429 44.763428-44.763428h89.380572V346.697143h402.285714v-89.380572h89.380572c24.722286 0 44.763429 20.041143 44.763428 44.763429v581.046857z m0 0" fill="" p-id="6936"></path><path d="M569.636571 503.076571c-22.089143 0-42.569143 8.045714-57.929142 21.942858-15.36-14.043429-35.401143-21.942857-57.490286-21.942858-42.861714 0-76.361143 41.106286-76.361143 93.622858 0 101.083429 118.052571 168.813714 123.172571 171.739428 3.364571 1.901714 7.168 2.925714 10.971429 2.925714 3.803429 0 7.606857-1.024 10.971429-2.925714 4.973714-2.779429 123.172571-70.656 123.172571-171.739428 0-52.370286-33.645714-93.622857-76.507429-93.622858zM512 722.651429c-26.038857-17.408-89.380571-65.974857-89.380571-125.805715 0-23.552 12.141714-49.005714 31.744-49.005714 22.674286 0 33.206857 15.213714 37.449142 24.283429 3.803429 8.045714 12.141714 12.873143 20.772572 12.873142 8.923429-0.292571 16.822857-5.558857 20.187428-13.897142 4.681143-11.264 16.822857-23.405714 37.010286-23.405715 19.602286 0 31.744 25.453714 31.744 49.005715-0.146286 59.830857-63.488 108.397714-89.526857 125.952z m0 0" fill="" p-id="6937"></path></svg>