 <svg class="icon" viewBox="0 0 1024 1024" version="1.1" xmlns="http://www.w3.org/2000/svg" p-id="2881" height="128" width="128"><path d="M948.760381 1014.223238H75.093333c-18.066286 0-36.132571-9.020952-47.420952-22.576762-11.288381-15.798857-15.798857-33.865143-11.288381-51.931428C61.561905 709.485714 248.929524 537.892571 474.697143 519.826286c75.629714 0 157.476571 9.606095 239.299047 42.910476 23.698286 9.581714 31.597714 15.798857 45.153524 22.552381 130.925714 74.50819 221.232762 203.190857 250.587429 354.425905 4.510476 18.066286 0 36.132571-13.55581 51.931428-11.288381 13.531429-29.354667 22.576762-47.396571 22.576762z" fill="#B8B8B8" p-id="2882"></path><path d="M76.239238 977.529905c-7.314286 0-14.116571-2.82819-18.041905-7.899429-0.585143-0.560762-0.585143-1.121524-1.145904-1.706666-5.632-5.607619-6.217143-15.213714-5.071239-20.870096 41.764571-214.454857 217.283048-375.296 427.227429-390.534095h16.920381c101.034667 0 198.095238 31.597714 245.51619 61.513143 124.14781 74.50819 207.11619 191.317333 233.081905 329.020952 1.121524 7.899429-0.585143 15.238095-6.217143 22.576762-3.949714 5.071238-10.727619 7.899429-18.041904 7.899429H76.214857z" fill="#B8B8B8" p-id="2883"></path><path d="M496.152381 570.051048c98.182095 0 192.414476 30.47619 238.128762 59.270095h0.585143c120.758857 71.68 200.899048 185.10019 225.743238 319.439238 0.560762 2.80381 0.560762 6.753524-3.949714 11.849143-0.560762 1.121524-3.413333 2.243048-6.777905 2.243047H76.239238c-3.388952 0-6.217143-1.121524-6.777905-2.243047a6.802286 6.802286 0 0 0-2.803809-2.828191c-1.145905-1.121524-2.267429-4.510476-1.145905-8.46019 40.643048-208.262095 210.505143-364.007619 414.232381-379.270095 5.12 0.585143 10.727619 0 16.384 0z m0-28.208762c-5.656381 0-11.873524 0-17.529905 0.560762-216.697905 15.798857-397.312 180.614095-440.198095 401.822476-2.243048 11.288381 0 24.84419 9.020952 33.889524 6.777905 9.020952 18.066286 13.531429 29.354667 13.531428h873.642667c11.288381 0 22.576762-4.510476 29.354666-13.555809 6.777905-9.020952 11.288381-20.309333 9.020953-33.865143-27.087238-144.457143-112.88381-262.972952-239.299048-338.602667-47.957333-29.915429-146.16381-63.780571-253.391238-63.780571z m16.920381-1.706667c-142.238476 0-259.632762-117.369905-259.632762-259.584C253.44 138.313143 370.834286 20.943238 513.072762 20.943238c142.214095 0 259.608381 117.369905 259.608381 259.608381 0 142.214095-117.394286 259.608381-259.608381 259.608381z" fill="#B8B8B8" p-id="2884"></path><path d="M513.072762 503.466667c-123.050667 0-222.939429-99.888762-222.939429-222.915048 0-123.050667 99.888762-222.939429 222.939429-222.939429 123.026286 0 222.915048 99.888762 222.915048 222.939429 0 123.026286-99.888762 222.915048-222.915048 222.915048z" fill="#B8B8B8" p-id="2885"></path><path d="M513.072762 71.728762c115.126857 0 208.798476 93.671619 208.798476 208.822857 0 115.126857-93.671619 208.798476-208.798476 208.798476-115.151238 0-208.822857-93.671619-208.822857-208.798476 0-115.151238 93.671619-208.822857 208.822857-208.822857z m0-28.233143a236.982857 236.982857 0 0 0-237.056 237.056 236.982857 236.982857 0 0 0 237.056 237.031619 236.982857 236.982857 0 0 0 237.031619-237.031619 236.982857 236.982857 0 0 0-237.031619-237.056z" fill="#B8B8B8" p-id="2886"></path></svg>